<svg width="103" height="101" viewBox="0 0 103 101" fill="none" xmlns="http://www.w3.org/2000/svg">
<path d="M10.9147 91.2663C8.95108 67.7253 21.9325 59.1542 28.6687 57.8112L44.9996 72.9397C40.2493 90.2611 20.297 92.3747 10.9147 91.2663Z" fill="#F7630C"/>
<path d="M17.2827 85.3082C18.3295 69.6981 27.7992 62.7494 32.4032 61.2264L41.7298 69.8663C36.8487 81.9245 23.3979 85.1852 17.2827 85.3082Z" fill="#FFC83D"/>
<path d="M42.7855 72.0061L44.0729 73.3017L45.815 72.7528L55.419 69.7269L61.2059 75.5774L63.2718 77.666L65.4033 75.6444L72.9444 68.4919L73.8799 67.6046V66.3153V53.0591L86.8858 39.4687L86.9243 39.4285L86.9613 39.3868C91.1732 34.6449 99.3687 21.6447 98.8338 6.73362L98.7365 4.02128L96.028 3.84734C89.88 3.45252 75.0694 5.07739 63.7165 14.8275L63.6302 14.9016L63.5498 14.9821L49.9681 28.5638H36.3616H35.0913L34.2073 29.476L26.8993 37.0172L24.9263 39.0532L26.8476 41.138L32.9283 47.7361L29.8033 56.5252L29.1705 58.305L30.5019 59.6449L42.7855 72.0061Z" stroke="#2E2E2E" stroke-width="6"/>
<path d="M76.1797 9.9176C82.7241 6.73476 90.0296 5.2356 97.2717 5.16064C97.5773 12.4835 95.7956 19.8409 92.6647 26.4314C87.1639 20.9364 81.692 15.4068 76.1797 9.9176V9.9176Z" fill="#E81224"/>
<path d="M63.374 18.4742C67.1738 15.0031 71.4753 12.0221 76.1803 9.91748C81.6926 15.4067 87.1646 20.9363 92.6653 26.4313C90.6415 31.0038 87.7469 35.1784 84.4257 38.909C80.1243 43.3373 75.7248 47.6733 71.3484 52.0266C66.159 57.1295 61.0503 62.3247 55.884 67.4507C55.8551 67.4161 55.7917 67.3469 55.7571 67.3065C48.9244 60.4854 42.109 53.6469 35.2705 46.8315C35.2417 46.8026 35.1782 46.745 35.1494 46.7161C40.2869 41.5498 45.4648 36.4238 50.5908 31.2517C54.8461 26.9849 59.0899 22.7122 63.374 18.4742V18.4742ZM68.2578 24.0211C66.4185 24.8399 64.902 26.414 64.1928 28.3053C62.4342 32.3645 64.9885 37.4559 69.2207 38.6264C73.9662 40.2524 79.4669 36.1816 79.2594 31.1652C79.5534 25.7221 73.1243 21.5302 68.2578 24.0211V24.0211ZM58.7151 42.0168C54.4944 46.2606 50.2564 50.4871 46.0183 54.7193C45.3322 55.2152 45.6147 56.1147 45.7646 56.7951C46.4508 57.0027 47.3676 57.2852 47.875 56.5818C52.113 52.3495 56.3453 48.1115 60.5833 43.8793C61.2521 43.3776 61.0446 42.4378 60.7793 41.7804C60.1162 41.5613 59.2052 41.3595 58.7151 42.0168V42.0168Z" fill="white"/>
<path d="M68.2575 24.0214C73.124 21.5305 79.5531 25.7224 79.259 31.1655C79.4666 36.1819 73.9658 40.2527 69.2204 38.6267C64.9881 37.4562 62.4338 32.3648 64.1924 28.3055C64.9016 26.4143 66.4181 24.8402 68.2575 24.0214ZM69.9123 26.1663C66.0837 27.135 64.9997 32.6531 68.0383 35.0921C70.9386 37.7502 76.4625 35.8071 76.5893 31.7305C77.2409 28.0807 73.3488 25.0074 69.9123 26.1663V26.1663Z" fill="#A6A6A6"/>
<path d="M69.9132 26.1663C73.3497 25.0074 77.2418 28.0806 76.5902 31.7305C76.4634 35.8071 70.9395 37.7502 68.0392 35.0921C65.0006 32.6531 66.0846 27.135 69.9132 26.1663V26.1663Z" fill="#CCCCCC"/>
<path d="M27.665 38.6382C30.0925 36.1243 32.5892 33.6737 35.0686 31.2059C39.9697 30.9752 44.8708 31.3788 49.7719 31.0732L50.5907 31.252C45.4647 36.4241 40.2868 41.5501 35.1493 46.7164C32.6526 44.2255 30.1271 41.7576 27.6766 39.2206L27.665 38.6382Z" fill="#00BCF2"/>
<path d="M58.7153 42.0173C59.2055 41.36 60.1165 41.5618 60.7796 41.7809C61.0448 42.4382 61.2524 43.3781 60.5835 43.8797C56.3455 48.112 52.1133 52.35 47.8753 56.5822C47.3678 57.2857 46.451 57.0032 45.7649 56.7956C45.615 56.1152 45.3324 55.2157 46.0186 54.7198C50.2566 50.4876 54.4946 46.2611 58.7153 42.0173V42.0173Z" fill="#00BCF2"/>
<path d="M55.8848 67.4509C61.0511 62.3249 66.1598 57.1298 71.3492 52.0269C71.8162 53.8835 71.355 55.7978 71.3953 57.6775C71.3204 61.0218 71.8681 64.4872 71.1993 67.7508C68.7776 70.1263 66.4308 72.5827 63.9745 74.9179C63.1442 75.1947 62.7751 74.2029 62.2216 73.8108C60.117 71.6832 57.9778 69.5901 55.8848 67.4509V67.4509Z" fill="#00BCF2"/>
<path d="M35.2698 46.8315C42.1083 53.647 48.9237 60.4854 55.7565 67.3066C52.1296 69.0134 48.105 69.9302 44.3282 71.3486C44.1841 71.2448 43.8843 71.0315 43.7401 70.9277C42.8348 69.9994 41.9353 69.0595 41.007 68.16C38.8217 65.9689 36.6306 63.7778 34.4395 61.5925C33.5285 60.6642 32.6059 59.7532 31.6661 58.8594C31.5796 58.6922 31.3951 58.3636 31.3086 58.2021C32.6348 54.4196 33.6381 50.4699 35.2698 46.8315Z" fill="#4A5459"/>
</svg>
